<?xml version="1.0" standalone="no"?>
<!DOCTYPE svg PUBLIC "-//W3C//DTD SVG 20010904//EN"
 "http://www.w3.org/TR/2001/REC-SVG-20010904/DTD/svg10.dtd">
<svg version="1.0" xmlns="http://www.w3.org/2000/svg"
 width="100.000000pt" height="100.000000pt" viewBox="0 0 100.000000 100.000000"
 preserveAspectRatio="xMidYMid meet">

<g transform="translate(0.000000,100.000000) scale(0.100000,-0.100000)"
fill="#000000" stroke="none">
<path d="M156 714 c-86 -91 -156 -169 -156 -173 0 -11 150 -181 159 -181 4 0
18 12 32 26 l24 26 5 -154 5 -153 275 0 275 0 3 154 c3 153 3 154 23 135 20
-18 21 -16 112 74 l92 92 -161 161 -161 161 -49 -17 c-82 -29 -162 -31 -242
-6 -39 11 -72 21 -75 21 -3 0 -75 -75 -161 -166z m241 101 c74 -19 129 -19
215 2 l69 17 137 -137 137 -137 -67 -67 -67 -67 -30 28 c-16 15 -34 25 -40 22
-7 -5 -11 -65 -11 -172 l0 -164 -240 0 -240 0 0 164 c0 108 -4 167 -11 172 -6
3 -28 -10 -49 -31 l-37 -37 -54 62 c-30 33 -54 65 -54 69 0 14 258 289 272
290 7 1 38 -6 70 -14z"/>
</g>
</svg>
